<?xml version="1.0" standalone="no"?><!DOCTYPE svg PUBLIC "-//W3C//DTD SVG 1.1//EN" "http://www.w3.org/Graphics/SVG/1.1/DTD/svg11.dtd"><svg t="1692446289196" class="icon" viewBox="0 0 1024 1024" version="1.1" xmlns="http://www.w3.org/2000/svg" p-id="14093" xmlns:xlink="http://www.w3.org/1999/xlink" width="512" height="512"><path d="M0 0m204.8 0l614.4 0q204.8 0 204.8 204.8l0 614.4q0 204.8-204.8 204.8l-614.4 0q-204.8 0-204.8-204.8l0-614.4q0-204.8 204.8-204.8Z" fill="#1989FA" opacity=".1" p-id="14094"></path><path d="M603.4944 280.2944c-55.6032 0-67.1744 67.1744-67.1744 90.3424v373.0176l55.6032-20.8384a114.7136 114.7136 0 0 1 30.1568-9.2672 132.1216 132.1216 0 0 1 30.1312-2.304H768v-430.9504z m-185.344 0c55.6032 0 67.1744 67.1744 67.1744 90.3424v373.0176l-55.6032-20.8384a114.688 114.688 0 0 0-30.1312-9.2672 132.1216 132.1216 0 0 0-30.1312-2.304H256v-430.9504z" fill="#1989FA" p-id="14095"></path></svg>