
<?xml version="1.0" encoding="UTF-8"?><svg id="_层_2" xmlns="http://www.w3.org/2000/svg" xmlns:xlink="http://www.w3.org/1999/xlink" viewBox="0 0 143 196"><defs><style>.cls-1{fill:#d5ddea;}.cls-2{fill:url(#_命名的渐变_7-3);}.cls-3{fill:url(#_命名的渐变_7);}.cls-4{fill:url(#_命名的渐变_6);}.cls-5{fill:url(#_命名的渐变_5-2);}.cls-6{fill:url(#_命名的渐变_6-2);}.cls-7{fill:none;}.cls-8{fill:url(#_命名的渐变_7-2);}.cls-9{fill:url(#_命名的渐变_5);}.cls-10{fill:#f5f9ff;}</style><linearGradient id="_命名的渐变_6" x1="-861.8" y1="638.07" x2="-861.94" y2="638.16" gradientTransform="translate(316368.87 243027.85) scale(366.99 -380.74)" gradientUnits="userSpaceOnUse"><stop offset="0" stop-color="#aeb7c4"/><stop offset="1" stop-color="#cfd5e0"/></linearGradient><linearGradient id="_命名的渐变_5" x1="-861.6" y1="638.54" x2="-861.72" y2="638.64" gradientTransform="translate(381406.11 329079.06) scale(442.59 -515.16)" gradientUnits="userSpaceOnUse"><stop offset="0" stop-color="#dce2ec"/><stop offset="1" stop-color="#eef1f5"/></linearGradient><linearGradient id="_命名的渐变_7" x1="-857.72" y1="640.94" x2="-857.72" y2="640.81" gradientTransform="translate(83370.1 28802.2) scale(97.13 -44.77)" gradientUnits="userSpaceOnUse"><stop offset="0" stop-color="#fdfeff"/><stop offset="1" stop-color="#f3f5f8"/></linearGradient><linearGradient id="_命名的渐变_7-2" x1="-857.25" y1="641.25" x2="-857.25" y2="641.12" gradientTransform="translate(92532.53 35984.65) scale(107.89 -55.94)" xlink:href="#_命名的渐变_7"/><linearGradient id="_命名的渐变_5-2" x1="-862.49" y1="638.49" x2="-862.61" y2="638.6" gradientTransform="translate(363236.71 307610.21) scale(421 -481.58)" xlink:href="#_命名的渐变_5"/><linearGradient id="_命名的渐变_6-2" x1="-861.8" y1="638.19" x2="-861.94" y2="638.28" gradientTransform="translate(93096.05 71559.02) scale(107.88 -111.98)" xlink:href="#_命名的渐变_6"/><linearGradient id="_命名的渐变_7-3" x1="-857.72" y1="638.6" x2="-857.72" y2="638.47" gradientTransform="translate(111125.08 78762.19) scale(129.52 -123.2)" xlink:href="#_命名的渐变_7"/></defs><g id="_层_1-2"><g><rect class="cls-7" width="143" height="196"/><g><path id="_形" class="cls-7" d="M15.49,32.87h116.2v116.8H15.49V32.87Z"/><g><path id="Path" class="cls-4" d="M94.83,77.33l-.27,1.11-.31,1.09-.34,1.07-.38,1.06-.41,1.02-.44,.99-.63,1.15-.67,1.1-.71,1.06-.76,1.02-.81,.98-.85,.93-.89,.88-.93,.83-.98,.78-1.01,.72-1.06,.67-1.1,.61-1.17,.59-1.2,.52-1.23,.45-1.26,.38-1.28,.3-1.3,.23-1.32,.16-1.35,.08h-1.34l-1.36-.07-1.38-.16-1.39-.24-1.37-.35-1.33-.42-1.28-.49-1.24-.56-1.21-.63-1.16-.69-1.11-.75-1.07-.81-1.02-.87-.97-.92-.91-.97-.86-1.03-.81-1.07-.75-1.11-.69-1.15-.63-1.2-.56-1.23-.5-1.26-.43-1.29-.37-1.32-.29-1.34-.22-1.36-.15-1.38-.07-1.41v-1.41l.09-1.42,.17-1.44,.25-1.45,.31-1.35,.37-1.3,.43-1.26,.48-1.22,.54-1.18,.6-1.16,.65-1.11,.7-1.06,.75-1.02,.79-.97,.85-.93,.88-.88,.92-.83,.96-.78,1-.73,1.03-.67,1.06-.62,1.09-.56,1.12-.5,1.15-.44,1.17-.38,1.19-.31,1.21-.25,1.23-.18,1.25-.12,1.25-.05,1.26,.02,1.28,.1,1.29,.17,1.31,.25,1.38,.35,1.34,.42,1.29,.5,1.26,.57,1.22,.64,1.18,.71,1.15,.77,1.11,.84,1.08,.91,1.04,.98,.82,.92,.77,.95,.72,.98,.67,1.01,.62,1.05,.57,1.08,.52,1.1,.46,1.12,.41,1.14,.36,1.16,.3,1.18,.25,1.19,.19,1.2,.14,1.21,.08,1.22,.03,1.22-.03,1.22-.09,1.22-.15,1.23-.21,1.23Z"/><path id="Path-2" class="cls-9" d="M66.24,108.54l-.07,.02-.04,.04-.04,.04-.07,.02-9.98,4.88-.3,.12-.29,.05h-.29l-.28-.07-.27-.11-.25-.16-.22-.2-.19-.25-.17-.29-.11-.31-.05-.31v-.3l.06-.3,.11-.28,.15-.27,.19-.24,.23-.21,.27-.18,6.87-3.29-2.15-.79,3.43-10.33-7.51-4.31,2.47-10.32-10.3-2.51,3.43-8.51-2.04-2.27-28.98,14.07-.55,.3-.51,.34-.48,.37-.45,.41-.55,.6-.48,.65-.41,.7-.34,.74-.27,.76-.19,.79-.11,.81-.03,.82,.05,.83,.09,.62,.14,.61,.2,.61,.25,.61,16.31,37.9,.28,.59,.32,.55,.35,.51,.39,.47,.42,.44,.45,.4,.47,.36,.5,.32,.7,.36,.72,.28,.75,.2,.57,.1,.58,.05h.58l.59-.05,.58-.1,.58-.15,.58-.21,.58-.26,28.66-13.85,1.72-9.64-6.65-2.27Z"/><path id="Path-3" class="cls-3" d="M53.46,112.25l.16,.25,.19,.21,.23,.18,.25,.14,.26,.1,.28,.05h.29l.29-.04,.29-.1,9.97-4.14,.07-.02,.04-.03,.04-.03,.07-.02-4.72-1.45-6.86,2.8-.28,.18-.23,.2-.19,.22-.16,.24-.11,.25-.06,.25v.26l.05,.26,.11,.27Z"/><path id="Path-4" class="cls-8" d="M49.43,116.14l-10.41,4.18-.31,.1-.3,.05h-.3l-.3-.06-.28-.1-.26-.14-.24-.18-.2-.21-.17-.25-.12-.27-.05-.26v-.26l.07-.25,.11-.24,.16-.23,.2-.2,.24-.17,.29-.15,10.4-4.18,.31-.1,.3-.05h.3l.3,.06,.28,.1,.26,.14,.24,.18,.2,.21,.17,.24,.12,.27,.05,.26v.26l-.07,.25-.11,.24-.16,.23-.2,.2-.24,.18-.29,.15Z"/><path id="Path-5" class="cls-5" d="M124.52,122.86l7.05-40.59,.09-.65,.04-.64v-.63l-.07-.62-.15-.81-.23-.77-.3-.74-.38-.71-.44-.65-.5-.61-.42-.42-.45-.38-.48-.35-.51-.31-.53-.27-.55-.22-.58-.18-.61-.13-36.29-6.74,.47,3.15-7.37,4.87,7.15,8.1-7.73,6.82,3.79,7.9-8.45,6.33,1.41,1.88,3.32,.6,.3,.08,.26,.13,.23,.17,.2,.22,.16,.25,.12,.28,.08,.29,.03,.31-.02,.32-.08,.28-.12,.26-.15,.23-.18,.21-.2,.17-.22,.14-.24,.1-.25,.05h-.26l4.25,5.9-6.58,6.7,36.62,6.94,.63,.09,.61,.04h.6l.59-.07,.59-.11,.57-.15,.55-.19,.53-.24,.68-.38,.63-.45,.59-.52,.4-.43,.37-.46,.33-.49,.3-.53,.26-.55,.21-.57,.17-.6,.13-.64Z"/><path id="Path-6" class="cls-10" d="M100.15,116.07l-11.74-2.12-.32-.08-.29-.13-.25-.19-.22-.23-.18-.26-.14-.29-.09-.31-.04-.32,.02-.34,.08-.33,.13-.29,.18-.26,.22-.22,.26-.18,.29-.14,.31-.09,.32-.04,.33,.02,11.74,2.13,.32,.08,.29,.13,.25,.18,.22,.23,.18,.26,.13,.29,.09,.31,.03,.32-.02,.34-.08,.33-.13,.29-.18,.26-.23,.22-.26,.18-.29,.14-.31,.09-.32,.04-.33-.02Z"/><path id="Path-7" class="cls-10" d="M115.55,117.5l-11.74-2.12-.32-.08-.29-.13-.25-.18-.22-.23-.18-.26-.14-.29-.09-.31-.04-.32,.02-.34,.08-.33,.13-.29,.18-.26,.22-.22,.26-.18,.29-.14,.31-.09,.32-.04,.33,.02,11.74,2.11,.32,.08,.29,.13,.25,.18,.22,.23,.18,.26,.13,.29,.09,.31,.04,.32-.02,.34-.08,.33-.13,.3-.18,.27-.22,.23-.25,.19-.29,.14-.31,.08-.33,.02-.35-.05Z"/><path id="Path-8" class="cls-6" d="M124.59,91.1l.09-.8v-.78l-.05-.76-.14-.75-.21-.72-.28-.69-.35-.66-.41-.61-.47-.57-.52-.52-.57-.46-.62-.4-.66-.33-.7-.26-.75-.19-.58-.08-.56-.03h-.56l-.54,.07-.72,.15-.69,.22-.66,.29-.63,.36-.58,.42-.55,.49-.49,.54-.44,.59-.39,.65-.32,.69-.25,.73-.18,.78-.09,.8v.78l.06,.76,.14,.75,.21,.72,.28,.69,.35,.66,.41,.61,.47,.57,.52,.52,.57,.46,.62,.4,.66,.33,.7,.26,.75,.19,.58,.08,.56,.03h.55l.55-.07,.72-.15,.69-.22,.66-.29,.63-.36,.59-.42,.55-.49,.49-.54,.44-.59,.39-.65,.32-.69,.25-.73,.18-.78Z"/><path id="Path-9" class="cls-10" d="M116.19,88.18l.09-.8v-.78l-.05-.76-.14-.75-.21-.72-.28-.69-.35-.66-.41-.61-.47-.57-.52-.52-.57-.46-.62-.4-.66-.33-.7-.26-.75-.19-.72-.1-.7-.02-.68,.05-.67,.12-.66,.19-.63,.25-.6,.31-.57,.37-.53,.43-.49,.48-.44,.53-.4,.58-.34,.61-.29,.65-.23,.69-.17,.74-.09,.8v.78l.05,.76,.14,.75,.21,.72,.28,.69,.35,.66,.41,.61,.47,.57,.52,.52,.57,.46,.62,.4,.66,.33,.7,.26,.75,.19,.72,.09,.7,.02,.68-.05,.67-.13,.66-.19,.63-.25,.6-.31,.57-.37,.53-.43,.49-.48,.44-.53,.4-.58,.34-.61,.29-.65,.23-.69,.17-.74Z"/><path id="Path-10" class="cls-1" d="M84.07,109.57l.02-.45-.04-.43-.09-.41-.15-.39-.19-.34-.24-.3-.28-.25-.31-.17-.35-.11-3.95-.84,3.6,5.84,.32-.06,.31-.1,.3-.16,.27-.2,.24-.24,.21-.29,.16-.32,.11-.36,.05-.41Z"/><path id="Path-11" class="cls-10" d="M70.8,57.69l-.51,.04-.47,.11-.45,.17-.42,.23-.38,.28-.34,.34-.29,.38-.24,.42-.19,.46-.13,.48-.06,.5v.53l1.14,12.76,.06,.42,.12,.38,.19,.35,.24,.32,.28,.27,.32,.23,.36,.17,.37,.1,.4,.04,.4-.04,.37-.1,.36-.17,.32-.23,.28-.27,.24-.32,.19-.35,.12-.38,.06-.42,1.14-12.76v-.55l-.06-.51-.13-.48-.19-.46-.24-.41-.29-.37-.34-.33-.38-.28-.42-.23-.45-.17-.48-.1-.51-.04Z"/><path id="Path-12" class="cls-10" d="M71.5,81.05l-.39,.03-.36,.08-.34,.12-.32,.17-.39,.29-.33,.35-.28,.41-.16,.34-.12,.36-.07,.38-.03,.41,.03,.41,.07,.38,.12,.36,.16,.34,.28,.41,.33,.35,.39,.29,.32,.17,.34,.12,.36,.08,.39,.03,.39-.03,.36-.08,.34-.12,.32-.17,.39-.29,.33-.35,.28-.41,.16-.34,.12-.36,.07-.38,.03-.41-.03-.41-.07-.38-.12-.36-.16-.34-.28-.41-.33-.35-.39-.29-.32-.17-.34-.12-.36-.08-.39-.03Z"/><path id="Path-13" class="cls-2" d="M41.3,98.22l-10.28,4.63-.25,.08-.26,.02-.27-.03-.26-.08-.25-.13-.25-.17-.22-.21-.18-.24-.15-.28-3.46-7.95-.1-.31-.05-.3v-.3l.03-.3,.08-.28,.12-.25,.16-.23,.19-.18,.23-.14,10.19-4.58,.25-.08,.26-.02,.27,.03,.26,.08,.25,.13,.25,.17,.22,.21,.18,.24,.15,.28,3.46,7.95,.13,.29,.08,.29,.02,.29-.03,.29-.07,.27-.12,.25-.16,.22-.19,.18-.23,.14Z"/></g></g></g></g></svg>