<svg xmlns="http://www.w3.org/2000/svg" viewBox="0 0 782.74 143.24" style="height: 18px; stroke: currentcolor;"><path d="m0 143.24.91-6.53c.2-1.62.86-2.94 1.98-3.95 1.11-1.01 2.43-1.57 3.95-1.67l63.65-2.58-.91 6.53c-.3 1.62-.99 2.94-2.05 3.95-1.06 1.01-2.35 1.57-3.87 1.67L0 143.24ZM43.9 16.1l-1.06 2.43c-1.82 3.75-4.46 5.62-7.9 5.62H15.65L25.52 0h25.67l-2.13 4.86h33.72c1.01 0 1.75.36 2.2 1.06.46.71.48 1.62.08 2.73L76.4 27.33h6.68L72.14 109.2c-.41 3.55-1.88 6.58-4.41 9.11-2.53 2.43-5.47 3.65-8.81 3.65H15.19c-3.44 0-6.08-1.21-7.9-3.65-1.82-2.53-2.48-5.57-1.97-9.11l10.93-81.86h17.47l-1.67 12-.15 1.82-3.34 24.61h4.56l3.49-26.43h-2.28l1.67-12h15.95l5.16-11.24H43.9Zm-16.71 93.88 4.41-32.05h-4.56l-3.95 29.47c-.1.81.05 1.47.46 1.98.5.41 1.11.61 1.82.61h1.82Zm26.43-32.05-4.25 32.05h2.58c.71 0 1.37-.2 1.97-.61.61-.51.96-1.16 1.06-1.98l3.95-29.47h-5.32Zm5.16-38.58-3.65 26.43h5.32l3.65-26.43h-5.32ZM84.6 89.93h23.7l-8.81 36.15c-1.32 5.06-3.85 9.14-7.59 12.23-3.75 3.09-8 4.63-12.76 4.63h-7.29l12.76-53.01Zm89.32-10.18c-2.63 2.53-5.62 3.8-8.96 3.8h-20.05l-5.62 42.38c-.3 2.33-1.01 4.5-2.13 6.53-1.12 2.02-2.48 3.8-4.1 5.32a21.69 21.69 0 0 1-5.77 3.65c-2.23 1.01-4.46 1.52-6.68 1.52H98.89l1.67-12.15h3.04c3.04 0 4.76-1.57 5.16-4.71l5.62-42.53H93.57c-3.34 0-6.13-1.27-8.36-3.8-2.13-2.43-2.99-5.42-2.58-8.96l6.53-49.06h29.77l-1.52 11.39-.3 2.28-4.56 33.27c-.1 1.01.1 1.88.61 2.58.51.71 1.26 1.06 2.28 1.06h31.29c.91 0 1.77-.35 2.58-1.06.81-.71 1.26-1.57 1.37-2.58l4.71-35.7h-34.18l1.52-11.24h62.28l-6.53 49.06c-.41 3.55-1.92 6.53-4.56 8.96Zm17.93-74.89-.76 5.77c-.3 1.82-1.09 3.32-2.35 4.48-1.27 1.17-2.76 1.75-4.48 1.75H87.65l.76-5.77c.2-1.82.96-3.32 2.28-4.48 1.32-1.16 2.78-1.75 4.41-1.75h29.77l.76-4.86h25.06c1.21 0 2.2.48 2.96 1.44.76.96 1.09 2.1.99 3.42h37.22Zm-41.17 85.06h23.54L173 142.93h-1.97c-5.98 0-10.99-2.2-15.04-6.61-4.05-4.41-6.08-9.85-6.08-16.33l.76-30.08Zm73.68-63.64h19.29L228 143.24h-30.53L211.6 37.82c.61-3.44 2.07-6.23 4.41-8.35 2.43-2.13 5.21-3.19 8.35-3.19Zm20.81-15.34.46 9.72H215.1V0h19.29c2.94 0 5.42 1.01 7.44 3.04 2.13 2.13 3.24 4.76 3.34 7.9Zm93.72 115.6-.46 3.04h-32.05c-3.44 0-6.23-1.27-8.35-3.8-2.13-2.53-2.94-5.62-2.43-9.27l4.1-29.77h-16.56l-11.7 29.77c-4.25 8.71-10.48 13.06-18.68 13.06h-16.71l16.56-42.84c-3.04-.51-5.42-1.97-7.14-4.41-1.72-2.43-2.33-5.37-1.82-8.81l5.47-41.32h10.18l-2.43-14.28h22.48c1.62 0 3.06.51 4.33 1.52 1.26 1.01 2.1 2.38 2.51 4.1l1.22 8.66h26.43l3.34-9.72c1.52-3.04 3.7-4.56 6.53-4.56h21.42l-4.56 14.28h8.35l-5.47 41.32c-.51 3.55-2.03 6.53-4.56 8.96-2.63 2.53-5.52 3.95-8.66 4.25l-3.8 26.89c-.1 1.01.15 1.92.76 2.73.61.71 1.37 1.06 2.28 1.06h1.82c2.33 0 4.25.91 5.77 2.73 1.52 1.72 2.13 3.85 1.82 6.38Zm49.37-123.5c.91 1.01 1.27 2.28 1.06 3.8l-16.56 123.19c-.51 3.65-2.18 6.78-5.01 9.42-2.73 2.53-5.88 3.8-9.42 3.8h-41.17l.46-3.8c.4-2.13 1.32-3.9 2.73-5.32 1.52-1.32 3.29-1.98 5.32-1.98h10.94c1.42 0 2.73-.56 3.95-1.67 1.21-1.12 1.92-2.43 2.13-3.95l15.19-113.01H255.5l1.67-12.15h127.75c1.32 0 2.43.56 3.34 1.67Zm-74.13 68.51 3.65-27.8h-40.56l-3.65 27.8c-.2.91 0 1.77.61 2.58.61.71 1.42 1.06 2.43 1.06h33.42c.91 0 1.77-.35 2.58-1.06.81-.81 1.32-1.67 1.52-2.58Zm121.82 16.86 1.67-12.46h135.19l-6.68 49.98c-.61 4.86-2.68 8.96-6.23 12.3-3.65 3.34-7.75 5.01-12.3 5.01H409.52c-4.56 0-8.2-1.67-10.94-5.01-2.73-3.34-3.75-7.44-3.04-12.3l6.53-49.98h30.84l-6.23 47.09c-.3 2.23.15 4.05 1.37 5.47 1.11 1.52 2.73 2.28 4.86 2.28h94.63c2.02 0 3.85-.76 5.47-2.28 1.62-1.42 2.53-3.24 2.73-5.47l4.71-34.63H435.94Zm-32.66-23.39.91-6.38c.2-1.82.93-3.29 2.2-4.41 1.27-1.11 2.71-1.67 4.33-1.67h164.81l-.76 6.38c-.3 1.72-1.06 3.17-2.28 4.33-1.22 1.17-2.68 1.75-4.41 1.75H403.28ZM512.21 4.86h73.98l-.76 6.08c-.3 1.82-1.12 3.34-2.43 4.56-1.32 1.21-2.84 1.82-4.56 1.82H405.88l.76-6.08c.3-1.82 1.11-3.34 2.43-4.56 1.32-1.21 2.83-1.82 4.56-1.82h67.9l.61-4.86h26.43c1.11 0 2.05.46 2.81 1.37.76.91 1.04 1.97.84 3.19v.3ZM406.64 40.25l.76-6.08c.3-1.92 1.09-3.47 2.35-4.63 1.27-1.16 2.81-1.75 4.63-1.75h164.51l-.76 6.08c-.3 1.92-1.09 3.47-2.35 4.63-1.27 1.17-2.76 1.75-4.48 1.75H406.64Zm376.1-31.29-2.13 9.72c-.41 1.72-1.27 3.24-2.58 4.56-1.52 1.12-3.14 1.67-4.86 1.67h-.15l-67.14 63.8 61.52 54.53h-29.62c-11.04 0-20.96-3.44-29.77-10.33l-26.43-24.15-25.82 22.94c-8.81 6.89-19.29 10.73-31.44 11.54h-30.84l65.17-53.62-50.89-50.28h35.7c4.56 0 8.56 1.62 12 4.86l26.58 26.73 50.73-46.03H603.81l1.97-9.57c.4-1.82 1.37-3.29 2.89-4.41 1.42-1.31 2.94-1.97 4.56-1.97h60.91l1.82-8.96h27.19c1.22 0 2.23.36 3.04 1.06.71.81.91 1.88.61 3.19l-.91 4.71h76.86Z" xmlns="http://www.w3.org/2000/svg" style="fill: currentColor;"></path></svg>